<svg width="265" height="37" viewBox="0 0 265 37" fill="none" xmlns="http://www.w3.org/2000/svg">
<path d="M35.152 8.928C38.48 8.928 41.12 9.936 43.072 11.952C45.056 13.968 46.048 16.768 46.048 20.352V36H37.888V21.456C37.888 19.728 37.424 18.4 36.496 17.472C35.6 16.512 34.352 16.032 32.752 16.032C31.152 16.032 29.888 16.512 28.96 17.472C28.064 18.4 27.616 19.728 27.616 21.456V36H19.456V21.456C19.456 19.728 18.992 18.4 18.064 17.472C17.168 16.512 15.92 16.032 14.32 16.032C12.72 16.032 11.456 16.512 10.528 17.472C9.632 18.4 9.184 19.728 9.184 21.456V36H0.976V9.216H9.184V12.576C10.016 11.456 11.104 10.576 12.448 9.936C13.792 9.264 15.312 8.928 17.008 8.928C19.024 8.928 20.816 9.36 22.384 10.224C23.984 11.088 25.232 12.32 26.128 13.92C27.056 12.448 28.32 11.248 29.92 10.32C31.52 9.392 33.264 8.928 35.152 8.928ZM50.1565 22.56C50.1565 19.808 50.6685 17.392 51.6925 15.312C52.7485 13.232 54.1725 11.632 55.9645 10.512C57.7565 9.392 59.7565 8.832 61.9645 8.832C63.7245 8.832 65.3245 9.2 66.7645 9.936C68.2365 10.672 69.3885 11.664 70.2205 12.912V0.48H78.4285V36H70.2205V32.16C69.4525 33.44 68.3485 34.464 66.9085 35.232C65.5005 36 63.8525 36.384 61.9645 36.384C59.7565 36.384 57.7565 35.824 55.9645 34.704C54.1725 33.552 52.7485 31.936 51.6925 29.856C50.6685 27.744 50.1565 25.312 50.1565 22.56ZM70.2205 22.608C70.2205 20.56 69.6445 18.944 68.4925 17.76C67.3725 16.576 65.9965 15.984 64.3645 15.984C62.7325 15.984 61.3405 16.576 60.1885 17.76C59.0685 18.912 58.5085 20.512 58.5085 22.56C58.5085 24.608 59.0685 26.24 60.1885 27.456C61.3405 28.64 62.7325 29.232 64.3645 29.232C65.9965 29.232 67.3725 28.64 68.4925 27.456C69.6445 26.272 70.2205 24.656 70.2205 22.608ZM100.207 36L95.0706 28.56L90.7506 36H81.8706L90.7026 22.32L81.6306 9.216H90.8466L95.9826 16.608L100.303 9.216H109.183L100.207 22.704L109.423 36H100.207ZM133.225 15.744V22.56H112.105V15.744H133.225ZM151.325 36.384C148.989 36.384 146.909 35.984 145.085 35.184C143.261 34.384 141.821 33.296 140.765 31.92C139.709 30.512 139.117 28.944 138.989 27.216H147.101C147.197 28.144 147.629 28.896 148.397 29.472C149.165 30.048 150.109 30.336 151.229 30.336C152.253 30.336 153.037 30.144 153.581 29.76C154.157 29.344 154.445 28.816 154.445 28.176C154.445 27.408 154.045 26.848 153.245 26.496C152.445 26.112 151.149 25.696 149.357 25.248C147.437 24.8 145.837 24.336 144.557 23.856C143.277 23.344 142.173 22.56 141.245 21.504C140.317 20.416 139.853 18.96 139.853 17.136C139.853 15.6 140.269 14.208 141.101 12.96C141.965 11.68 143.213 10.672 144.845 9.936C146.509 9.2 148.477 8.832 150.749 8.832C154.109 8.832 156.749 9.664 158.669 11.328C160.621 12.992 161.741 15.2 162.029 17.952H154.445C154.317 17.024 153.901 16.288 153.197 15.744C152.525 15.2 151.629 14.928 150.509 14.928C149.549 14.928 148.813 15.12 148.301 15.504C147.789 15.856 147.533 16.352 147.533 16.992C147.533 17.76 147.933 18.336 148.733 18.72C149.565 19.104 150.845 19.488 152.573 19.872C154.557 20.384 156.173 20.896 157.421 21.408C158.669 21.888 159.757 22.688 160.685 23.808C161.645 24.896 162.141 26.368 162.173 28.224C162.173 29.792 161.725 31.2 160.829 32.448C159.965 33.664 158.701 34.624 157.037 35.328C155.405 36.032 153.501 36.384 151.325 36.384ZM182.123 29.04V36H177.947C174.971 36 172.651 35.28 170.987 33.84C169.323 32.368 168.491 29.984 168.491 26.688V16.032H165.227V9.216H168.491V2.688H176.699V9.216H182.075V16.032H176.699V26.784C176.699 27.584 176.891 28.16 177.275 28.512C177.659 28.864 178.299 29.04 179.195 29.04H182.123ZM185.063 22.56C185.063 19.808 185.575 17.392 186.599 15.312C187.655 13.232 189.079 11.632 190.871 10.512C192.663 9.392 194.663 8.832 196.871 8.832C198.759 8.832 200.407 9.216 201.815 9.984C203.255 10.752 204.359 11.76 205.127 13.008V9.216H213.335V36H205.127V32.208C204.327 33.456 203.207 34.464 201.767 35.232C200.359 36 198.711 36.384 196.823 36.384C194.647 36.384 192.663 35.824 190.871 34.704C189.079 33.552 187.655 31.936 186.599 29.856C185.575 27.744 185.063 25.312 185.063 22.56ZM205.127 22.608C205.127 20.56 204.551 18.944 203.399 17.76C202.279 16.576 200.903 15.984 199.271 15.984C197.639 15.984 196.247 16.576 195.095 17.76C193.975 18.912 193.415 20.512 193.415 22.56C193.415 24.608 193.975 26.24 195.095 27.456C196.247 28.64 197.639 29.232 199.271 29.232C200.903 29.232 202.279 28.64 203.399 27.456C204.551 26.272 205.127 24.656 205.127 22.608ZM234.201 29.04V36H230.025C227.049 36 224.729 35.28 223.065 33.84C221.401 32.368 220.569 29.984 220.569 26.688V16.032H217.305V9.216H220.569V2.688H228.777V9.216H234.153V16.032H228.777V26.784C228.777 27.584 228.969 28.16 229.353 28.512C229.737 28.864 230.377 29.04 231.273 29.04H234.201ZM264.021 22.176C264.021 22.944 263.973 23.744 263.877 24.576H245.301C245.429 26.24 245.957 27.52 246.885 28.416C247.845 29.28 249.013 29.712 250.389 29.712C252.437 29.712 253.861 28.848 254.661 27.12H263.397C262.949 28.88 262.133 30.464 260.949 31.872C259.797 33.28 258.341 34.384 256.581 35.184C254.821 35.984 252.853 36.384 250.677 36.384C248.053 36.384 245.717 35.824 243.669 34.704C241.621 33.584 240.021 31.984 238.869 29.904C237.717 27.824 237.141 25.392 237.141 22.608C237.141 19.824 237.701 17.392 238.821 15.312C239.973 13.232 241.573 11.632 243.621 10.512C245.669 9.392 248.021 8.832 250.677 8.832C253.269 8.832 255.573 9.376 257.589 10.464C259.605 11.552 261.173 13.104 262.293 15.12C263.445 17.136 264.021 19.488 264.021 22.176ZM255.621 20.016C255.621 18.608 255.141 17.488 254.181 16.656C253.221 15.824 252.021 15.408 250.581 15.408C249.205 15.408 248.037 15.808 247.077 16.608C246.149 17.408 245.573 18.544 245.349 20.016H255.621Z" fill="#211D1E"/>
</svg>